The Enigma of Kaspar Hauser - Jeder für sich und Gott gegen alle*1974*[DVD5][PAL][GER, POL]

General information:
Country: West Germany 
Release: 1 November 1974
Genre: Biography, Drama, History 
Director: Werner Herzog
Screenplay: Jakob Wassermann, Werner Herzog  
Original Music: Tomaso Albinoni , Johann Pachelbel 
Cinematography by: Jörg Schmidt-Reitwein , Klaus Wyborny
Duration: 1h 45mn
Language: German, Polish
Subtitles: Polish
Rating: 8.1/10 - 1154 votes 

Cast:
Bruno S.  ...  Kaspar Hauser  
Walter Ladengast  ...  Professor Daumer  
Brigitte Mira  ...  Kathe, Servant  
Willy Semmelrogge  ...  Circus director  
Michael Kroecher  ...  Lord Stanhope  
Hans Musäus  ...  Unknown Man  
Marcus Weller    
Gloria Doer  ...  Frau Hiltel  
Volker Prechtel  ...  Hiltel the prison guard  
Herbert Achternbusch  ...  Bavarian Chicken Hypnotizer  
Wolfgang Bauer    
Wilhelm Bayer  ...  Taunting Farmboy  
Franz Brumbach    
Johannes Buzalski    
Helmut Döring  ...  Little King  

Plot:
Herzog's film is based upon the true and mysterious story of Kaspar Hauser, a young man who suddenly appeared in Nuremberg in 1828, barely able to speak or walk, and bearing a strange note; he later explained that he had been held captive in a dungeon of some sort for his entire life that he could remember...

Specifications:
General
Format                           : MPEG-PS
Overall bit rate                 : 5 618 Kbps

Video
Format                           : MPEG Video
Format version                   : Version 2
Format settings, BVOP            : Yes
Format settings, Matrix          : Default
Format settings, GOP             : M=3, N=12
Bit rate mode                    : Variable
Bit rate                         : 4 802 Kbps
Nominal bit rate                 : 6 000 Kbps
Width                            : 720 pixels
Height                           : 576 pixels
Display aspect ratio             : 16:9
Frame rate                       : 25.000 fps
Standard                         : PAL

Audio 1
Format                           : AC-3
Format/Info                      : Audio Coding 3
Mode extension                   : CM (complete main)
Bit rate mode                    : Constant
Bit rate                         : 448 Kbps
Channel(s)                       : 6 channels
Channel positions                : Front: L C R, Side: L R, LFE
Sampling rate                    : 48.0 KHz
Bit depth                        : 16 bits
Video delay                      : -80ms
Stream size                      : 81.6 MiB (8%)

Audio 2
Format                           : AC-3
Format/Info                      : Audio Coding 3
Mode extension                   : CM (complete main)
Bit rate mode                    : Constant
Bit rate                         : 256 Kbps
Channel(s)                       : 2 channels
Channel positions                : Front: L R
Sampling rate                    : 48.0 KHz
Bit depth                        : 16 bits
Video delay                      : -80ms
Stream size                      : 46.7 MiB (5%)

Text
Format                           : RLE
Format/Info                      : Run-length encoding
